<svg width="1440" height="2200" viewBox="0 0 1440 2200" fill="none" xmlns="http://www.w3.org/2000/svg">
  <rect width="1440" height="2200" fill="#F3F4EF"/>
  <rect x="96" y="96" width="1248" height="96" rx="18" fill="#FAFCFA" stroke="#CFD8D3"/>
  <circle cx="156" cy="144" r="22" fill="#181513"/>
  <text x="143" y="151" font-family="Arial, sans-serif" font-size="16" font-weight="700" fill="#FAFCFA">LK</text>
  <text x="194" y="152" font-family="Arial, sans-serif" font-size="26" font-weight="700" fill="#181513">Lauren Kashuk</text>
  <rect x="864" y="120" width="170" height="46" rx="12" fill="#FFFFFF" stroke="#CFD8D3"/>
  <rect x="1050" y="120" width="210" height="46" rx="12" fill="#FFFFFF" stroke="#CFD8D3"/>
  <text x="949" y="149" text-anchor="middle" font-family="Arial, sans-serif" font-size="17" fill="#5E5750">Brand Building</text>
  <text x="1155" y="149" text-anchor="middle" font-family="Arial, sans-serif" font-size="17" fill="#1B4038">Event + Music Marketing</text>

  <rect x="96" y="224" width="1248" height="88" rx="18" fill="#FAFCFA" stroke="#CFD8D3"/>
  <rect x="118" y="246" width="106" height="42" rx="12" fill="#FFFFFF" stroke="#CFD8D3"/>
  <text x="171" y="273" text-anchor="middle" font-family="Arial, sans-serif" font-size="14" font-weight="700" fill="#5E5750">PAGE TWO</text>
  <rect x="242" y="246" width="306" height="42" rx="12" fill="#FFFFFF" stroke="#CFD8D3"/>
  <text x="395" y="273" text-anchor="middle" font-family="Georgia, serif" font-size="24" fill="#181513">Event + Music Marketing</text>
  <rect x="566" y="246" width="706" height="42" rx="12" fill="#FFFFFF" stroke="#CFD8D3"/>
  <text x="919" y="273" text-anchor="middle" font-family="Arial, sans-serif" font-size="16" fill="#5E5750">Live promotion, audience growth, creator ecosystems, cultural momentum</text>

  <rect x="96" y="344" width="1248" height="640" rx="24" fill="#FAFCFA" stroke="#CFD8D3"/>
  <rect x="126" y="374" width="760" height="580" rx="20" fill="#FFFFFF" stroke="#CFD8D3"/>
  <rect x="156" y="404" width="240" height="34" rx="10" fill="#E9F1EE" stroke="#BFD0C9"/>
  <text x="276" y="426" text-anchor="middle" font-family="Arial, sans-serif" font-size="13" font-weight="700" fill="#1B4038">EVENT + MUSIC MARKETING</text>
  <rect x="156" y="462" width="372" height="74" rx="14" fill="#FFFFFF" stroke="#CFD8D3"/>
  <rect x="156" y="550" width="426" height="74" rx="14" fill="#FFFFFF" stroke="#CFD8D3"/>
  <rect x="156" y="638" width="494" height="74" rx="14" fill="#FFFFFF" stroke="#CFD8D3"/>
  <rect x="156" y="726" width="378" height="74" rx="14" fill="#E9F1EE" stroke="#BFD0C9"/>
  <text x="184" y="510" font-family="Georgia, serif" font-size="44" fill="#181513">Campaigns, partnerships,</text>
  <text x="184" y="598" font-family="Georgia, serif" font-size="44" fill="#181513">and live moments</text>
  <text x="184" y="686" font-family="Georgia, serif" font-size="44" fill="#181513">that people show up</text>
  <text x="184" y="774" font-family="Georgia, serif" font-size="44" fill="#1B4038">and talk about.</text>
  <rect x="156" y="836" width="650" height="66" rx="14" fill="#FFFFFF" stroke="#CFD8D3"/>
  <text x="184" y="878" font-family="Arial, sans-serif" font-size="22" fill="#5E5750">Artist relations, social-first campaigns, on-site media, audience connection.</text>
  <rect x="156" y="918" width="214" height="48" rx="14" fill="#181513"/>
  <rect x="386" y="918" width="232" height="48" rx="14" fill="#FFFFFF" stroke="#CFD8D3"/>
  <text x="263" y="948" text-anchor="middle" font-family="Arial, sans-serif" font-size="16" font-weight="700" fill="#FAFCFA">View Campaign Work</text>
  <text x="502" y="948" text-anchor="middle" font-family="Arial, sans-serif" font-size="16" font-weight="700" fill="#181513">See 16-Year Timeline</text>

  <rect x="910" y="374" width="404" height="580" rx="20" fill="#FFFFFF" stroke="#CFD8D3"/>
  <rect x="938" y="404" width="178" height="34" rx="10" fill="#E9F1EE" stroke="#BFD0C9"/>
  <text x="1027" y="426" text-anchor="middle" font-family="Arial, sans-serif" font-size="13" font-weight="700" fill="#1B4038">MARKETING FOCUS</text>
  <rect x="938" y="464" width="272" height="60" rx="14" fill="#FFFFFF" stroke="#CFD8D3"/>
  <rect x="938" y="536" width="268" height="60" rx="14" fill="#FFFFFF" stroke="#CFD8D3"/>
  <text x="964" y="504" font-family="Georgia, serif" font-size="32" fill="#181513">Audience growth, creator</text>
  <text x="964" y="576" font-family="Georgia, serif" font-size="32" fill="#181513">systems, and live execution.</text>
  <rect x="938" y="726" width="348" height="84" rx="16" fill="#FFFFFF" stroke="#CFD8D3"/>
  <rect x="938" y="826" width="348" height="84" rx="16" fill="#FFFFFF" stroke="#CFD8D3"/>
  <text x="966" y="772" font-family="Arial, sans-serif" font-size="46" font-weight="700" fill="#181513">300+</text>
  <text x="1066" y="772" font-family="Arial, sans-serif" font-size="18" fill="#5E5750">live shows marketed across Southern California</text>
  <text x="966" y="872" font-family="Arial, sans-serif" font-size="46" font-weight="700" fill="#181513">2.5MM</text>
  <text x="1086" y="872" font-family="Arial, sans-serif" font-size="18" fill="#5E5750">unique viewers reached by a virtual festival</text>

  <rect x="96" y="1016" width="300" height="76" rx="16" fill="#FFFFFF" stroke="#CFD8D3"/>
  <rect x="412" y="1016" width="300" height="76" rx="16" fill="#FFFFFF" stroke="#CFD8D3"/>
  <rect x="728" y="1016" width="300" height="76" rx="16" fill="#FFFFFF" stroke="#CFD8D3"/>
  <rect x="1044" y="1016" width="300" height="76" rx="16" fill="#FFFFFF" stroke="#CFD8D3"/>
  <text x="246" y="1062" text-anchor="middle" font-family="Arial, sans-serif" font-size="22" font-weight="700" fill="#181513">Event Promotion</text>
  <text x="562" y="1062" text-anchor="middle" font-family="Arial, sans-serif" font-size="22" font-weight="700" fill="#181513">Artist Marketing</text>
  <text x="878" y="1062" text-anchor="middle" font-family="Arial, sans-serif" font-size="22" font-weight="700" fill="#181513">Partnership Strategy</text>
  <text x="1194" y="1062" text-anchor="middle" font-family="Arial, sans-serif" font-size="22" font-weight="700" fill="#181513">Audience Engagement</text>

  <rect x="96" y="1124" width="1248" height="392" rx="24" fill="#FAFCFA" stroke="#CFD8D3"/>
  <rect x="126" y="1154" width="180" height="34" rx="10" fill="#E9F1EE" stroke="#BFD0C9"/>
  <text x="216" y="1176" text-anchor="middle" font-family="Arial, sans-serif" font-size="13" font-weight="700" fill="#1B4038">SELECTED WORK</text>
  <rect x="324" y="1154" width="612" height="62" rx="14" fill="#FFFFFF" stroke="#CFD8D3"/>
  <text x="630" y="1194" text-anchor="middle" font-family="Georgia, serif" font-size="34" fill="#181513">Work built for turnout and resonance.</text>
  <rect x="126" y="1246" width="470" height="236" rx="18" fill="#E9F1EE" stroke="#BFD0C9"/>
  <rect x="612" y="1246" width="348" height="236" rx="18" fill="#FFFFFF" stroke="#CFD8D3"/>
  <rect x="976" y="1246" width="338" height="236" rx="18" fill="#FFFFFF" stroke="#CFD8D3"/>
  <text x="154" y="1280" font-family="Arial, sans-serif" font-size="13" font-weight="700" fill="#1B4038">FRAMEWORK | 2023 - 2025</text>
  <rect x="154" y="1300" width="310" height="48" rx="12" fill="#FFFFFF" stroke="#CFD8D3"/>
  <rect x="154" y="1358" width="352" height="48" rx="12" fill="#FFFFFF" stroke="#CFD8D3"/>
  <text x="176" y="1332" font-family="Georgia, serif" font-size="28" fill="#181513">Live event marketing</text>
  <text x="176" y="1390" font-family="Georgia, serif" font-size="28" fill="#181513">across clubs and festivals</text>
  <rect x="154" y="1422" width="168" height="34" rx="10" fill="#FFFFFF" stroke="#CFD8D3"/>
  <rect x="334" y="1422" width="156" height="34" rx="10" fill="#FFFFFF" stroke="#CFD8D3"/>
  <text x="238" y="1444" text-anchor="middle" font-family="Arial, sans-serif" font-size="13" font-weight="700" fill="#181513">Event Promotion</text>
  <text x="412" y="1444" text-anchor="middle" font-family="Arial, sans-serif" font-size="13" font-weight="700" fill="#181513">On-Site Media</text>

  <rect x="96" y="1548" width="1248" height="536" rx="24" fill="#FAFCFA" stroke="#CFD8D3"/>
  <rect x="126" y="1578" width="156" height="34" rx="10" fill="#E9F1EE" stroke="#BFD0C9"/>
  <text x="204" y="1600" text-anchor="middle" font-family="Arial, sans-serif" font-size="13" font-weight="700" fill="#1B4038">EXPERIENCE</text>
  <rect x="300" y="1578" width="844" height="62" rx="14" fill="#FFFFFF" stroke="#CFD8D3"/>
  <text x="722" y="1618" text-anchor="middle" font-family="Georgia, serif" font-size="34" fill="#181513">A 16-year arc across live culture and audience growth.</text>
  <rect x="126" y="1672" width="1188" height="86" rx="16" fill="#FFFFFF" stroke="#CFD8D3"/>
  <rect x="126" y="1774" width="1188" height="86" rx="16" fill="#FFFFFF" stroke="#CFD8D3"/>
  <rect x="126" y="1876" width="1188" height="86" rx="16" fill="#FFFFFF" stroke="#CFD8D3"/>
  <rect x="126" y="1978" width="1188" height="86" rx="16" fill="#FFFFFF" stroke="#CFD8D3"/>
  <text x="154" y="1712" font-family="Arial, sans-serif" font-size="13" font-weight="700" fill="#1B4038">2025 - PRESENT</text>
  <text x="430" y="1716" font-family="Arial, sans-serif" font-size="24" font-weight="700" fill="#181513">Ting Internet | Senior Manager, Campaigns, Creative &amp; Content</text>
  <text x="154" y="1814" font-family="Arial, sans-serif" font-size="13" font-weight="700" fill="#1B4038">2023 - 2025</text>
  <text x="430" y="1818" font-family="Arial, sans-serif" font-size="24" font-weight="700" fill="#181513">Framework | Marketing &amp; Media Manager</text>
  <text x="154" y="1916" font-family="Arial, sans-serif" font-size="13" font-weight="700" fill="#1B4038">2017 - 2023</text>
  <text x="430" y="1920" font-family="Arial, sans-serif" font-size="24" font-weight="700" fill="#181513">Ideaison | Founder &amp; Creative Director</text>
  <text x="154" y="2018" font-family="Arial, sans-serif" font-size="13" font-weight="700" fill="#1B4038">2012 - 2017</text>
  <text x="430" y="2022" font-family="Arial, sans-serif" font-size="24" font-weight="700" fill="#181513">Ogilvy, Google, and Social@Ogilvy | Audience and Platform Growth</text>
</svg>
