<svg width="1440" height="2200" viewBox="0 0 1440 2200" fill="none" xmlns="http://www.w3.org/2000/svg">
  <rect width="1440" height="2200" fill="#F6F2EC"/>
  <rect x="96" y="96" width="1248" height="96" rx="18" fill="#FCFAF7" stroke="#DDD3C8"/>
  <circle cx="156" cy="144" r="22" fill="#181513"/>
  <text x="143" y="151" font-family="Arial, sans-serif" font-size="16" font-weight="700" fill="#FCFAF7">LK</text>
  <text x="194" y="152" font-family="Arial, sans-serif" font-size="26" font-weight="700" fill="#181513">Lauren Kashuk</text>
  <rect x="864" y="120" width="170" height="46" rx="12" fill="#FFFFFF" stroke="#DDD3C8"/>
  <rect x="1050" y="120" width="210" height="46" rx="12" fill="#FFFFFF" stroke="#DDD3C8"/>
  <text x="949" y="149" text-anchor="middle" font-family="Arial, sans-serif" font-size="17" fill="#181513">Brand Building</text>
  <text x="1155" y="149" text-anchor="middle" font-family="Arial, sans-serif" font-size="17" fill="#5E5750">Event + Music Marketing</text>

  <rect x="96" y="224" width="1248" height="88" rx="18" fill="#FCFAF7" stroke="#DDD3C8"/>
  <rect x="118" y="246" width="106" height="42" rx="12" fill="#FFFFFF" stroke="#DDD3C8"/>
  <text x="171" y="273" text-anchor="middle" font-family="Arial, sans-serif" font-size="14" font-weight="700" fill="#5E5750">PAGE ONE</text>
  <rect x="242" y="246" width="238" height="42" rx="12" fill="#FFFFFF" stroke="#DDD3C8"/>
  <text x="361" y="273" text-anchor="middle" font-family="Georgia, serif" font-size="24" fill="#181513">Brand Building</text>
  <rect x="498" y="246" width="624" height="42" rx="12" fill="#FFFFFF" stroke="#DDD3C8"/>
  <text x="810" y="273" text-anchor="middle" font-family="Arial, sans-serif" font-size="16" fill="#5E5750">Strategy, positioning, content systems, launch storytelling</text>

  <rect x="96" y="344" width="1248" height="640" rx="24" fill="#FCFAF7" stroke="#DDD3C8"/>
  <rect x="126" y="374" width="760" height="580" rx="20" fill="#FFFFFF" stroke="#DDD3C8"/>
  <rect x="156" y="404" width="250" height="34" rx="10" fill="#F8EFE8" stroke="#E1C9BC"/>
  <text x="281" y="426" text-anchor="middle" font-family="Arial, sans-serif" font-size="13" font-weight="700" fill="#85432B">BRAND BUILDING BACKGROUND</text>
  <rect x="156" y="462" width="508" height="74" rx="14" fill="#FFFFFF" stroke="#DDD3C8"/>
  <rect x="156" y="550" width="430" height="74" rx="14" fill="#FFFFFF" stroke="#DDD3C8"/>
  <rect x="156" y="638" width="468" height="74" rx="14" fill="#FFFFFF" stroke="#DDD3C8"/>
  <rect x="156" y="726" width="390" height="74" rx="14" fill="#F8EFE8" stroke="#E1C9BC"/>
  <text x="184" y="510" font-family="Georgia, serif" font-size="44" fill="#181513">For the last 16 years,</text>
  <text x="184" y="598" font-family="Georgia, serif" font-size="44" fill="#181513">I’ve helped brands</text>
  <text x="184" y="686" font-family="Georgia, serif" font-size="44" fill="#181513">find their voice and</text>
  <text x="184" y="774" font-family="Georgia, serif" font-size="44" fill="#85432B">build presence.</text>
  <rect x="156" y="836" width="634" height="66" rx="14" fill="#FFFFFF" stroke="#DDD3C8"/>
  <text x="184" y="878" font-family="Arial, sans-serif" font-size="22" fill="#5E5750">Agency leadership, founder-led ventures, live culture, and in-house brand work.</text>
  <rect x="156" y="918" width="188" height="48" rx="14" fill="#181513"/>
  <rect x="360" y="918" width="232" height="48" rx="14" fill="#FFFFFF" stroke="#DDD3C8"/>
  <text x="250" y="948" text-anchor="middle" font-family="Arial, sans-serif" font-size="16" font-weight="700" fill="#FCFAF7">View Brand Work</text>
  <text x="476" y="948" text-anchor="middle" font-family="Arial, sans-serif" font-size="16" font-weight="700" fill="#181513">See 16-Year Timeline</text>

  <rect x="910" y="374" width="404" height="580" rx="20" fill="#FFFFFF" stroke="#DDD3C8"/>
  <rect x="938" y="404" width="136" height="34" rx="10" fill="#F8EFE8" stroke="#E1C9BC"/>
  <text x="1006" y="426" text-anchor="middle" font-family="Arial, sans-serif" font-size="13" font-weight="700" fill="#85432B">BRAND LENS</text>
  <rect x="938" y="464" width="258" height="60" rx="14" fill="#FFFFFF" stroke="#DDD3C8"/>
  <rect x="938" y="536" width="218" height="60" rx="14" fill="#FFFFFF" stroke="#DDD3C8"/>
  <rect x="938" y="608" width="170" height="60" rx="14" fill="#FFFFFF" stroke="#DDD3C8"/>
  <text x="964" y="504" font-family="Georgia, serif" font-size="32" fill="#181513">Positioning, narrative,</text>
  <text x="964" y="576" font-family="Georgia, serif" font-size="32" fill="#181513">systems, and scale.</text>
  <rect x="938" y="726" width="348" height="84" rx="16" fill="#FFFFFF" stroke="#DDD3C8"/>
  <rect x="938" y="826" width="348" height="84" rx="16" fill="#FFFFFF" stroke="#DDD3C8"/>
  <text x="966" y="772" font-family="Arial, sans-serif" font-size="46" font-weight="700" fill="#181513">16</text>
  <text x="1038" y="772" font-family="Arial, sans-serif" font-size="18" fill="#5E5750">years across brand, content, and communications</text>
  <text x="966" y="872" font-family="Arial, sans-serif" font-size="46" font-weight="700" fill="#181513">6</text>
  <text x="1038" y="872" font-family="Arial, sans-serif" font-size="18" fill="#5E5750">person team across campaigns, content, and creative</text>

  <rect x="96" y="1016" width="300" height="76" rx="16" fill="#FFFFFF" stroke="#DDD3C8"/>
  <rect x="412" y="1016" width="300" height="76" rx="16" fill="#FFFFFF" stroke="#DDD3C8"/>
  <rect x="728" y="1016" width="300" height="76" rx="16" fill="#FFFFFF" stroke="#DDD3C8"/>
  <rect x="1044" y="1016" width="300" height="76" rx="16" fill="#FFFFFF" stroke="#DDD3C8"/>
  <text x="246" y="1062" text-anchor="middle" font-family="Arial, sans-serif" font-size="22" font-weight="700" fill="#181513">Brand Strategy</text>
  <text x="562" y="1062" text-anchor="middle" font-family="Arial, sans-serif" font-size="22" font-weight="700" fill="#181513">Narrative Systems</text>
  <text x="878" y="1062" text-anchor="middle" font-family="Arial, sans-serif" font-size="22" font-weight="700" fill="#181513">Creative Operations</text>
  <text x="1194" y="1062" text-anchor="middle" font-family="Arial, sans-serif" font-size="22" font-weight="700" fill="#181513">Launch Storytelling</text>

  <rect x="96" y="1124" width="1248" height="392" rx="24" fill="#FCFAF7" stroke="#DDD3C8"/>
  <rect x="126" y="1154" width="180" height="34" rx="10" fill="#F8EFE8" stroke="#E1C9BC"/>
  <text x="216" y="1176" text-anchor="middle" font-family="Arial, sans-serif" font-size="13" font-weight="700" fill="#85432B">SELECTED WORK</text>
  <rect x="324" y="1154" width="646" height="62" rx="14" fill="#FFFFFF" stroke="#DDD3C8"/>
  <text x="647" y="1194" text-anchor="middle" font-family="Georgia, serif" font-size="34" fill="#181513">Brand-building work shaped for traction.</text>
  <rect x="126" y="1246" width="470" height="236" rx="18" fill="#F8EFE8" stroke="#E1C9BC"/>
  <rect x="612" y="1246" width="348" height="236" rx="18" fill="#FFFFFF" stroke="#DDD3C8"/>
  <rect x="976" y="1246" width="338" height="236" rx="18" fill="#FFFFFF" stroke="#DDD3C8"/>
  <text x="154" y="1280" font-family="Arial, sans-serif" font-size="13" font-weight="700" fill="#85432B">TING INTERNET | 2025 - PRESENT</text>
  <rect x="154" y="1300" width="344" height="48" rx="12" fill="#FFFFFF" stroke="#DDD3C8"/>
  <rect x="154" y="1358" width="308" height="48" rx="12" fill="#FFFFFF" stroke="#DDD3C8"/>
  <text x="176" y="1332" font-family="Georgia, serif" font-size="28" fill="#181513">Global brand systems</text>
  <text x="176" y="1390" font-family="Georgia, serif" font-size="28" fill="#181513">and campaign leadership</text>
  <rect x="154" y="1422" width="298" height="34" rx="10" fill="#FFFFFF" stroke="#DDD3C8"/>
  <rect x="464" y="1422" width="156" height="34" rx="10" fill="#FFFFFF" stroke="#DDD3C8"/>
  <text x="303" y="1444" text-anchor="middle" font-family="Arial, sans-serif" font-size="13" font-weight="700" fill="#181513">Brand Systems</text>
  <text x="542" y="1444" text-anchor="middle" font-family="Arial, sans-serif" font-size="13" font-weight="700" fill="#181513">Operations</text>

  <rect x="96" y="1548" width="1248" height="536" rx="24" fill="#FCFAF7" stroke="#DDD3C8"/>
  <rect x="126" y="1578" width="156" height="34" rx="10" fill="#F8EFE8" stroke="#E1C9BC"/>
  <text x="204" y="1600" text-anchor="middle" font-family="Arial, sans-serif" font-size="13" font-weight="700" fill="#85432B">EXPERIENCE</text>
  <rect x="300" y="1578" width="822" height="62" rx="14" fill="#FFFFFF" stroke="#DDD3C8"/>
  <text x="711" y="1618" text-anchor="middle" font-family="Georgia, serif" font-size="34" fill="#181513">A 16-year arc across brand, agency, and leadership.</text>
  <rect x="126" y="1672" width="1188" height="86" rx="16" fill="#FFFFFF" stroke="#DDD3C8"/>
  <rect x="126" y="1774" width="1188" height="86" rx="16" fill="#FFFFFF" stroke="#DDD3C8"/>
  <rect x="126" y="1876" width="1188" height="86" rx="16" fill="#FFFFFF" stroke="#DDD3C8"/>
  <rect x="126" y="1978" width="1188" height="86" rx="16" fill="#FFFFFF" stroke="#DDD3C8"/>
  <text x="154" y="1712" font-family="Arial, sans-serif" font-size="13" font-weight="700" fill="#85432B">2025 - PRESENT</text>
  <text x="430" y="1716" font-family="Arial, sans-serif" font-size="24" font-weight="700" fill="#181513">Ting Internet | Senior Manager, Campaigns, Creative &amp; Content</text>
  <text x="154" y="1814" font-family="Arial, sans-serif" font-size="13" font-weight="700" fill="#85432B">2023 - 2025</text>
  <text x="430" y="1818" font-family="Arial, sans-serif" font-size="24" font-weight="700" fill="#181513">Framework | Marketing Manager &amp; On-Site Media Lead</text>
  <text x="154" y="1916" font-family="Arial, sans-serif" font-size="13" font-weight="700" fill="#85432B">2017 - 2023</text>
  <text x="430" y="1920" font-family="Arial, sans-serif" font-size="24" font-weight="700" fill="#181513">Ideaison | Founder &amp; Executive Producer</text>
  <text x="154" y="2018" font-family="Arial, sans-serif" font-size="13" font-weight="700" fill="#85432B">2012 - 2017</text>
  <text x="430" y="2022" font-family="Arial, sans-serif" font-size="24" font-weight="700" fill="#181513">Ogilvy, Google, and Social@Ogilvy | Agency and Platform Leadership</text>
</svg>
